<svg id="svg" version="1.1" xmlns="http://www.w3.org/2000/svg" xmlns:xlink="http://www.w3.org/1999/xlink" width="400" height="266.3157894736842" viewBox="0, 0, 400,266.3157894736842"><g id="svgg"><path id="path0" d="M30.291 21.763 C 30.193 21.861,30.113 28.277,30.113 36.020 L 30.113 50.100 33.756 50.100 C 36.755 50.100,37.485 50.177,37.881 50.536 C 38.405 51.009,38.789 51.080,41.106 51.132 C 42.449 51.162,42.638 51.232,42.638 51.699 C 42.638 52.173,42.816 52.232,44.237 52.232 C 45.658 52.232,45.836 52.291,45.836 52.765 C 45.836 53.058,45.926 53.284,46.036 53.266 C 46.920 53.127,47.968 53.351,47.968 53.680 C 47.968 54.039,48.703 54.432,49.206 54.341 C 49.760 54.242,50.100 54.392,50.100 54.735 C 50.100 55.165,50.667 55.430,51.587 55.430 C 51.983 55.430,52.232 55.584,52.232 55.829 C 52.232 56.049,52.458 56.229,52.734 56.229 C 53.014 56.229,53.298 56.468,53.377 56.770 C 53.455 57.067,53.619 57.293,53.741 57.271 C 54.563 57.127,55.229 57.357,55.352 57.828 C 55.430 58.123,55.716 58.361,55.994 58.361 C 56.318 58.361,56.496 58.550,56.496 58.894 C 56.496 59.238,56.673 59.427,56.998 59.427 C 57.278 59.427,57.562 59.666,57.641 59.968 C 57.719 60.265,57.882 60.491,58.005 60.469 C 58.765 60.335,59.427 60.544,59.427 60.918 C 59.427 61.151,59.667 61.405,59.960 61.482 C 60.255 61.559,60.493 61.845,60.493 62.123 C 60.493 62.447,60.682 62.625,61.026 62.625 C 61.420 62.625,61.559 62.803,61.559 63.307 C 61.559 63.682,61.666 63.923,61.796 63.842 C 61.927 63.762,62.236 64.121,62.483 64.642 C 62.730 65.163,63.103 65.654,63.311 65.734 C 63.520 65.814,63.691 66.107,63.691 66.384 C 63.691 66.711,63.879 66.889,64.224 66.889 C 64.539 66.889,64.757 67.066,64.757 67.324 C 64.757 67.563,65.005 67.974,65.307 68.236 C 65.610 68.499,65.850 68.783,65.840 68.867 C 65.739 69.754,65.880 70.087,66.356 70.087 C 66.800 70.087,66.889 70.264,66.889 71.153 C 66.889 72.041,66.978 72.219,67.422 72.219 C 67.856 72.219,67.955 72.396,67.955 73.176 C 67.955 73.902,68.081 74.167,68.475 74.270 C 68.901 74.381,69.010 74.680,69.075 75.911 C 69.134 77.035,69.255 77.415,69.554 77.415 C 69.866 77.415,69.971 77.846,70.032 79.375 C 70.100 81.059,70.184 81.355,70.632 81.472 C 71.451 81.686,71.440 92.078,70.620 92.338 C 70.150 92.488,70.087 92.742,70.087 94.488 C 70.087 96.291,70.039 96.469,69.554 96.469 C 69.080 96.469,69.021 96.647,69.021 98.068 C 69.021 99.489,68.961 99.667,68.488 99.667 C 68.043 99.667,67.955 99.845,67.955 100.745 C 67.955 101.623,67.869 101.808,67.488 101.744 C 67.126 101.683,67.004 101.883,66.941 102.638 C 66.883 103.336,66.714 103.648,66.341 103.745 C 66.000 103.835,65.823 104.111,65.823 104.556 C 65.823 104.928,65.684 105.317,65.515 105.422 C 65.308 105.550,65.279 105.490,65.425 105.238 C 65.553 105.016,65.543 104.954,65.399 105.085 C 65.266 105.208,65.140 105.388,65.121 105.485 C 64.954 106.310,64.633 106.862,64.319 106.862 C 64.113 106.862,63.830 107.162,63.691 107.528 C 63.552 107.895,63.255 108.195,63.031 108.195 C 62.799 108.195,62.625 108.429,62.625 108.743 C 62.625 109.045,62.506 109.219,62.361 109.129 C 62.205 109.032,62.169 109.153,62.275 109.426 C 62.409 109.778,62.347 109.846,62.008 109.716 C 61.765 109.623,61.578 109.632,61.594 109.736 C 61.722 110.595,61.505 111.126,61.026 111.126 C 60.671 111.126,60.493 111.304,60.493 111.659 C 60.493 112.014,60.315 112.192,59.960 112.192 C 59.667 112.192,59.427 112.312,59.427 112.458 C 59.427 112.605,59.277 112.695,59.094 112.658 C 58.911 112.622,58.786 112.727,58.817 112.893 C 58.848 113.060,58.521 113.266,58.090 113.352 C 57.527 113.465,57.350 113.624,57.462 113.916 C 57.578 114.217,57.439 114.324,56.932 114.324 C 56.420 114.324,56.286 114.429,56.405 114.739 C 56.511 115.014,56.380 115.203,56.022 115.297 C 55.723 115.375,55.419 115.668,55.346 115.947 C 55.246 116.329,54.974 116.456,54.255 116.456 C 53.475 116.456,53.298 116.555,53.298 116.989 C 53.298 117.344,53.120 117.522,52.765 117.522 C 52.472 117.522,51.992 117.761,51.699 118.055 C 51.406 118.348,50.926 118.588,50.633 118.588 C 50.278 118.588,50.100 118.765,50.100 119.121 C 50.100 119.575,49.922 119.654,48.901 119.654 C 48.053 119.654,47.702 119.762,47.702 120.025 C 47.702 120.504,47.116 120.720,45.814 120.720 C 44.948 120.720,44.770 120.810,44.770 121.252 C 44.770 121.726,44.592 121.785,43.171 121.785 C 41.928 121.785,41.572 121.874,41.572 122.185 C 41.572 122.477,41.232 122.598,40.306 122.635 C 36.408 122.790,35.658 122.895,35.769 123.268 C 35.810 123.406,34.596 123.577,33.045 123.651 L 30.247 123.784 30.177 137.442 L 30.108 151.099 32.110 151.099 C 33.933 151.099,34.111 151.052,34.111 150.566 C 34.111 150.211,34.288 150.033,34.644 150.033 C 34.999 150.033,35.177 149.856,35.177 149.500 C 35.177 149.066,35.354 148.967,36.134 148.967 C 36.868 148.967,37.124 148.843,37.231 148.434 C 37.308 148.139,37.595 147.901,37.873 147.901 C 38.197 147.901,38.374 147.713,38.374 147.368 C 38.374 147.013,38.552 146.835,38.907 146.835 C 39.263 146.835,39.440 146.658,39.440 146.302 C 39.440 145.868,39.618 145.769,40.398 145.769 C 41.132 145.769,41.388 145.645,41.495 145.237 C 41.572 144.942,41.859 144.704,42.136 144.704 C 42.412 144.704,42.638 144.538,42.638 144.335 C 42.638 144.132,42.878 143.904,43.171 143.827 C 43.464 143.750,43.704 143.496,43.704 143.263 C 43.704 142.990,43.937 142.838,44.357 142.838 C 44.716 142.838,45.333 142.538,45.728 142.172 C 46.123 141.805,46.549 141.506,46.674 141.506 C 46.800 141.506,46.902 141.326,46.902 141.106 C 46.902 140.882,47.140 140.706,47.443 140.706 C 47.741 140.706,48.050 140.537,48.129 140.331 C 48.208 140.124,48.615 139.814,49.034 139.640 C 49.453 139.467,49.860 139.156,49.939 138.950 C 50.018 138.743,50.327 138.574,50.625 138.574 C 50.982 138.574,51.166 138.399,51.166 138.060 C 51.166 137.731,51.382 137.512,51.765 137.454 C 52.095 137.404,52.335 137.215,52.298 137.036 C 52.262 136.856,52.322 136.728,52.432 136.752 C 52.899 136.853,54.097 136.156,54.097 135.783 C 54.097 135.554,54.330 135.376,54.630 135.376 C 54.986 135.376,55.163 135.199,55.163 134.843 C 55.163 134.459,55.341 134.310,55.801 134.310 C 56.152 134.310,56.511 134.123,56.599 133.894 C 56.686 133.665,56.879 133.552,57.027 133.643 C 57.174 133.734,57.295 133.682,57.295 133.527 C 57.295 133.330,65.044 133.245,82.856 133.245 C 108.259 133.245,109.336 133.219,109.108 132.623 C 109.038 132.442,109.268 132.296,109.659 132.273 C 111.063 132.193,111.067 132.182,111.110 128.445 C 111.148 125.121,111.122 124.932,110.605 124.797 C 110.305 124.719,110.060 124.504,110.060 124.319 C 110.060 123.703,108.488 123.651,89.773 123.651 C 71.330 123.651,71.153 123.646,71.153 123.118 C 71.153 122.690,71.330 122.585,72.057 122.585 C 72.615 122.585,73.020 122.432,73.114 122.185 C 73.199 121.965,73.451 121.785,73.676 121.785 C 73.906 121.785,74.084 121.553,74.084 121.252 C 74.084 120.897,74.262 120.720,74.617 120.720 C 74.910 120.720,75.150 120.593,75.150 120.437 C 75.150 120.282,75.270 120.229,75.416 120.320 C 75.563 120.410,75.683 120.350,75.683 120.187 C 75.683 120.023,75.803 119.963,75.949 120.053 C 76.096 120.144,76.216 120.091,76.216 119.936 C 76.216 119.781,76.456 119.654,76.749 119.654 C 77.104 119.654,77.282 119.476,77.282 119.121 C 77.282 118.765,77.459 118.588,77.815 118.588 C 78.158 118.588,78.348 118.410,78.348 118.089 C 78.348 117.713,78.610 117.548,79.414 117.419 C 80.103 117.309,80.480 117.109,80.480 116.852 C 80.480 116.633,80.718 116.456,81.013 116.456 C 81.368 116.456,81.546 116.278,81.546 115.923 C 81.546 115.567,81.723 115.390,82.079 115.390 C 82.434 115.390,82.612 115.212,82.612 114.857 C 82.612 114.445,82.789 114.324,83.396 114.324 C 83.848 114.324,84.328 114.119,84.529 113.840 C 84.720 113.574,85.087 113.278,85.343 113.182 C 85.600 113.086,85.809 112.824,85.809 112.600 C 85.809 112.370,86.041 112.192,86.342 112.192 C 86.698 112.192,86.875 112.014,86.875 111.659 C 86.875 111.215,87.053 111.126,87.941 111.126 C 88.528 111.126,88.993 111.036,88.976 110.926 C 88.890 110.383,89.044 110.060,89.389 110.060 C 89.599 110.060,89.843 109.833,89.931 109.555 C 90.032 109.239,90.445 108.984,91.037 108.872 C 91.711 108.746,91.941 108.585,91.836 108.312 C 91.732 108.039,91.887 107.928,92.372 107.928 C 92.830 107.928,93.100 107.753,93.194 107.395 C 93.271 107.100,93.557 106.862,93.835 106.862 C 94.159 106.862,94.337 106.673,94.337 106.329 C 94.337 105.898,94.515 105.796,95.270 105.796 C 95.783 105.796,96.188 105.706,96.171 105.596 C 96.078 105.007,96.258 104.730,96.736 104.730 C 97.091 104.730,97.268 104.553,97.268 104.197 C 97.268 103.842,97.446 103.664,97.801 103.664 C 98.157 103.664,98.334 103.487,98.334 103.131 C 98.334 102.687,98.512 102.598,99.400 102.598 C 100.289 102.598,100.466 102.509,100.466 102.065 C 100.466 101.710,100.644 101.532,100.999 101.532 C 101.355 101.532,101.532 101.355,101.532 100.999 C 101.532 100.640,101.710 100.466,102.079 100.466 C 102.805 100.466,104.726 99.356,104.728 98.934 C 104.729 98.751,104.970 98.601,105.263 98.601 C 105.618 98.601,105.796 98.423,105.796 98.068 C 105.796 97.716,105.974 97.535,106.319 97.535 C 106.606 97.535,107.056 97.310,107.318 97.035 C 107.580 96.760,108.065 96.452,108.394 96.351 C 108.724 96.250,108.994 96.009,108.994 95.816 C 108.994 95.623,109.234 95.403,109.527 95.326 C 109.820 95.249,110.060 94.995,110.060 94.762 C 110.060 94.502,110.292 94.334,110.660 94.329 C 111.339 94.319,112.273 93.708,112.010 93.445 C 111.915 93.349,112.108 93.271,112.439 93.271 C 112.807 93.271,113.093 93.074,113.174 92.763 C 113.247 92.483,113.536 92.195,113.815 92.122 C 114.095 92.048,114.324 91.797,114.324 91.564 C 114.324 91.323,114.545 91.139,114.835 91.139 C 115.629 91.139,116.189 90.852,116.189 90.445 C 116.189 90.240,116.429 90.073,116.722 90.073 C 117.078 90.073,117.255 89.896,117.255 89.540 C 117.255 89.149,117.433 89.007,117.921 89.007 C 118.336 89.007,118.588 88.856,118.588 88.608 C 118.588 88.388,118.759 88.208,118.969 88.208 C 119.179 88.208,119.427 87.968,119.520 87.675 C 119.613 87.382,119.808 87.142,119.954 87.142 C 120.099 87.142,120.132 87.280,120.028 87.450 C 119.910 87.640,119.955 87.685,120.145 87.567 C 120.710 87.218,120.528 85.092,119.920 84.933 C 119.601 84.849,119.387 84.569,119.387 84.235 C 119.387 83.855,119.217 83.678,118.854 83.678 C 118.499 83.678,118.321 83.500,118.321 83.145 C 118.321 82.799,118.143 82.612,117.817 82.612 C 117.539 82.612,117.249 82.447,117.172 82.246 C 117.095 82.045,116.726 81.804,116.353 81.710 C 115.646 81.533,114.324 80.376,114.324 79.935 C 114.324 79.795,114.073 79.680,113.766 79.680 C 113.439 79.680,113.152 79.467,113.073 79.166 C 112.999 78.882,112.784 78.711,112.592 78.784 C 112.402 78.857,112.170 78.794,112.077 78.644 C 111.984 78.494,111.732 78.439,111.517 78.521 C 111.249 78.624,111.126 78.494,111.126 78.110 C 111.126 77.726,110.957 77.548,110.593 77.548 C 110.238 77.548,110.060 77.371,110.060 77.015 C 110.060 76.571,109.882 76.482,108.994 76.482 C 108.106 76.482,107.928 76.394,107.928 75.949 C 107.928 75.594,107.750 75.416,107.395 75.416 C 107.095 75.416,106.862 75.239,106.862 75.010 C 106.862 74.787,106.555 74.487,106.180 74.344 C 105.805 74.202,105.570 73.967,105.659 73.823 C 105.750 73.677,105.347 73.485,104.743 73.389 C 103.928 73.259,103.664 73.094,103.664 72.717 C 103.664 72.396,103.474 72.219,103.131 72.219 C 102.776 72.219,102.598 72.041,102.598 71.686 C 102.598 71.241,102.421 71.153,101.532 71.153 C 100.644 71.153,100.466 71.064,100.466 70.620 C 100.466 70.264,100.289 70.087,99.933 70.087 C 99.578 70.087,99.400 69.909,99.400 69.554 C 99.400 69.258,99.223 69.021,99.001 69.021 C 98.781 69.021,98.361 68.781,98.068 68.488 C 97.775 68.195,97.235 67.955,96.869 67.955 C 96.380 67.955,96.203 67.813,96.203 67.422 C 96.203 67.077,96.025 66.889,95.701 66.889 C 95.423 66.889,95.136 66.651,95.059 66.356 C 94.958 65.968,94.696 65.823,94.096 65.823 C 93.449 65.823,93.271 65.708,93.271 65.290 C 93.271 64.941,93.093 64.757,92.756 64.757 C 92.473 64.757,92.165 64.517,92.072 64.224 C 91.979 63.931,91.746 63.691,91.554 63.691 C 91.362 63.691,91.062 63.519,90.887 63.308 C 90.712 63.098,90.218 62.848,89.788 62.754 C 89.255 62.637,89.007 62.420,89.007 62.071 C 89.007 61.774,88.824 61.559,88.570 61.559 C 88.330 61.559,87.980 61.349,87.792 61.093 C 87.453 60.628,87.354 60.590,86.342 60.526 C 86.049 60.508,85.809 60.321,85.809 60.111 C 85.809 59.901,85.570 59.653,85.276 59.560 C 84.983 59.467,84.744 59.219,84.744 59.009 C 84.744 58.799,84.570 58.628,84.359 58.628 C 84.147 58.628,83.818 58.404,83.626 58.130 C 83.434 57.857,82.888 57.548,82.412 57.443 C 81.930 57.337,81.546 57.085,81.546 56.874 C 81.546 56.666,81.306 56.496,81.013 56.496 C 80.657 56.496,80.480 56.318,80.480 55.963 C 80.480 55.607,80.302 55.430,79.947 55.430 C 79.654 55.430,79.174 55.190,78.881 54.897 C 78.588 54.604,78.108 54.364,77.815 54.364 C 77.459 54.364,77.282 54.186,77.282 53.831 C 77.282 53.486,77.104 53.298,76.780 53.298 C 76.502 53.298,76.216 53.060,76.139 52.765 C 76.032 52.357,75.775 52.232,75.042 52.232 C 74.262 52.232,74.084 52.133,74.084 51.699 C 74.084 51.344,73.906 51.166,73.551 51.166 C 73.258 51.166,73.048 51.019,73.085 50.839 C 73.121 50.659,72.761 50.337,72.285 50.124 C 71.809 49.912,71.419 49.579,71.419 49.386 C 71.419 49.188,71.127 49.034,70.753 49.034 C 70.264 49.034,70.087 48.892,70.087 48.501 C 70.087 48.149,69.909 47.968,69.563 47.968 C 69.275 47.968,68.911 47.728,68.754 47.435 C 68.567 47.086,68.196 46.902,67.679 46.902 C 67.066 46.902,66.889 46.782,66.889 46.369 C 66.889 46.014,66.711 45.836,66.356 45.836 C 66.000 45.836,65.823 45.658,65.823 45.303 C 65.823 44.912,65.645 44.770,65.157 44.770 C 64.790 44.770,64.490 44.643,64.490 44.488 C 64.490 44.333,64.370 44.280,64.224 44.370 C 64.077 44.461,63.957 44.348,63.957 44.120 C 63.957 43.854,63.717 43.704,63.291 43.704 C 62.803 43.704,62.625 43.562,62.625 43.171 C 62.625 42.819,62.447 42.638,62.101 42.638 C 61.813 42.638,61.450 42.400,61.294 42.108 C 61.138 41.816,60.924 41.591,60.818 41.606 C 60.050 41.722,59.470 41.498,59.350 41.039 C 59.273 40.746,59.033 40.506,58.817 40.506 C 58.600 40.506,58.361 40.266,58.284 39.973 C 58.207 39.680,57.953 39.440,57.720 39.440 C 57.486 39.440,57.055 39.201,56.762 38.907 C 56.469 38.614,55.989 38.374,55.696 38.374 C 55.400 38.374,55.163 38.197,55.163 37.975 C 55.163 37.755,54.972 37.575,54.739 37.575 C 54.505 37.575,54.255 37.348,54.182 37.071 C 54.103 36.769,53.721 36.500,53.231 36.402 C 52.781 36.312,52.245 36.000,52.041 35.708 C 51.836 35.416,51.496 35.177,51.284 35.177 C 51.072 35.177,50.899 34.997,50.899 34.777 C 50.899 34.416,50.583 34.259,50.033 34.346 C 49.846 34.375,49.731 33.961,49.802 33.511 C 49.819 33.401,49.414 33.311,48.901 33.311 C 48.146 33.311,47.968 33.210,47.968 32.778 C 47.968 32.429,47.790 32.245,47.453 32.245 C 47.170 32.245,46.862 32.005,46.769 31.712 C 46.644 31.320,46.366 31.179,45.716 31.179 C 45.056 31.179,44.797 31.044,44.693 30.646 C 44.616 30.353,44.362 30.113,44.129 30.113 C 43.895 30.113,43.704 29.930,43.704 29.707 C 43.704 29.483,43.397 29.184,43.022 29.041 C 42.647 28.899,42.413 28.664,42.502 28.520 C 42.592 28.373,42.189 28.182,41.585 28.086 C 40.770 27.955,40.506 27.791,40.506 27.414 C 40.506 27.093,40.317 26.915,39.973 26.915 C 39.680 26.915,39.440 26.748,39.440 26.544 C 39.440 26.115,38.873 25.849,37.953 25.849 C 37.486 25.849,37.308 25.702,37.308 25.316 C 37.308 24.961,37.131 24.783,36.775 24.783 C 36.420 24.783,36.243 24.606,36.243 24.250 C 36.243 23.856,36.065 23.718,35.561 23.718 C 35.128 23.718,34.946 23.609,35.062 23.421 C 35.304 23.029,34.687 22.661,33.777 22.656 C 33.224 22.653,33.045 22.521,33.045 22.119 C 33.045 21.582,30.766 21.288,30.291 21.763 M61.825 126.316 C 61.566 126.801,61.235 126.966,60.693 126.880 C 60.583 126.863,60.493 127.075,60.493 127.351 C 60.493 127.628,60.255 127.915,59.960 127.992 C 59.667 128.069,59.427 128.322,59.427 128.556 C 59.427 128.923,58.799 129.130,58.036 129.015 C 57.930 128.999,57.716 129.225,57.560 129.516 C 57.404 129.808,57.036 130.047,56.741 130.047 C 56.379 130.047,56.231 130.198,56.284 130.513 C 56.336 130.824,56.163 131.008,55.763 131.065 C 55.307 131.129,55.163 131.018,55.163 130.598 C 55.163 130.224,54.992 130.047,54.630 130.047 C 54.337 130.047,54.097 129.875,54.097 129.665 C 54.097 129.455,53.857 129.207,53.564 129.114 C 53.150 128.983,53.031 128.711,53.031 127.897 C 53.031 127.026,53.122 126.849,53.564 126.849 C 53.920 126.849,54.097 126.671,54.097 126.316 C 54.097 125.806,54.275 125.783,58.104 125.783 C 62.028 125.783,62.105 125.794,61.825 126.316 M65.823 139.107 C 65.823 139.463,65.645 139.640,65.290 139.640 C 64.941 139.640,64.757 139.818,64.757 140.155 C 64.757 140.439,64.517 140.746,64.224 140.839 C 63.743 140.992,63.691 141.243,63.691 143.389 C 63.691 145.592,63.731 145.769,64.224 145.769 C 64.610 145.769,64.757 145.947,64.757 146.414 C 64.757 148.025,62.344 147.902,93.899 147.897 C 111.596 147.895,122.872 147.796,123.118 147.641 C 123.516 147.389,123.554 147.289,123.618 146.334 C 123.636 146.058,123.871 145.774,124.141 145.704 C 124.958 145.490,124.914 140.624,124.097 140.782 C 123.932 140.813,123.756 140.570,123.705 140.240 C 123.649 139.872,123.427 139.640,123.130 139.640 C 122.865 139.640,122.584 139.400,122.508 139.107 C 122.369 138.579,122.144 138.574,94.096 138.574 C 66.000 138.574,65.823 138.578,65.823 139.107 " stroke="none" fill="#fcb904" fill-rule="evenodd"></path><path id="path1" d="M176.682 206.529 C 176.446 206.971,176.124 207.062,174.807 207.062 C 173.396 207.062,173.218 207.122,173.218 207.595 C 173.218 208.036,173.040 208.128,172.183 208.128 C 171.372 208.128,171.118 208.243,171.009 208.661 C 170.906 209.053,170.645 209.194,170.020 209.194 C 169.395 209.194,169.134 209.335,169.031 209.727 C 168.954 210.022,168.668 210.260,168.390 210.260 C 168.066 210.260,167.888 210.448,167.888 210.793 C 167.888 211.148,167.710 211.326,167.355 211.326 C 167.000 211.326,166.822 211.503,166.822 211.859 C 166.822 212.169,166.644 212.392,166.397 212.392 C 166.164 212.392,165.910 212.632,165.833 212.925 C 165.757 213.218,165.534 213.458,165.337 213.458 C 165.141 213.458,164.902 213.877,164.805 214.394 C 164.709 214.909,164.451 215.431,164.232 215.553 C 164.002 215.682,163.773 216.328,163.689 217.082 C 163.595 217.925,163.369 218.511,163.051 218.736 C 162.101 219.408,162.428 228.914,163.401 228.914 C 163.524 228.914,163.624 229.264,163.624 229.692 C 163.624 230.738,163.870 231.312,164.319 231.312 C 164.556 231.312,164.690 231.610,164.690 232.137 C 164.690 232.737,164.835 232.999,165.223 233.101 C 165.516 233.177,165.756 233.456,165.756 233.720 C 165.756 233.984,165.851 234.239,165.967 234.288 C 166.083 234.337,166.517 234.827,166.931 235.376 C 167.346 235.926,167.849 236.376,168.051 236.376 C 168.252 236.376,168.566 236.616,168.749 236.909 C 168.932 237.202,169.279 237.442,169.520 237.442 C 169.761 237.442,170.021 237.682,170.097 237.975 C 170.203 238.379,170.461 238.508,171.163 238.508 C 171.866 238.508,172.123 238.637,172.229 239.041 C 172.346 239.487,172.593 239.574,173.751 239.574 C 174.909 239.574,175.156 239.660,175.273 240.107 C 175.406 240.618,175.636 240.640,181.002 240.640 C 186.368 240.640,186.598 240.618,186.732 240.107 C 186.850 239.655,187.095 239.574,188.331 239.574 C 189.566 239.574,189.811 239.492,189.929 239.041 C 190.039 238.623,190.293 238.508,191.104 238.508 C 191.961 238.508,192.139 238.416,192.139 237.975 C 192.139 237.572,192.318 237.441,192.871 237.438 C 194.274 237.430,194.250 237.571,194.192 229.439 L 194.137 221.852 190.309 221.778 C 185.379 221.683,185.743 221.284,185.743 226.786 C 185.743 230.513,185.676 231.281,185.343 231.409 C 185.123 231.493,184.943 231.746,184.943 231.970 C 184.943 232.687,177.577 232.566,177.348 231.845 C 177.247 231.526,176.945 231.312,176.595 231.312 C 176.274 231.312,175.861 231.073,175.678 230.779 C 175.495 230.486,175.106 230.247,174.815 230.247 C 174.461 230.247,174.284 230.068,174.284 229.714 C 174.284 229.420,174.044 228.941,173.751 228.648 C 173.458 228.354,173.218 227.893,173.218 227.623 C 173.218 227.352,172.978 226.914,172.685 226.649 C 172.004 226.033,171.859 220.653,172.523 220.653 C 172.953 220.653,173.218 220.085,173.218 219.165 C 173.218 218.784,173.374 218.521,173.600 218.521 C 173.810 218.521,174.058 218.281,174.151 217.988 C 174.244 217.695,174.492 217.455,174.702 217.455 C 174.911 217.455,175.083 217.215,175.083 216.922 C 175.083 216.559,175.261 216.389,175.641 216.389 C 175.975 216.389,176.255 216.175,176.339 215.856 C 176.448 215.439,176.702 215.323,177.511 215.323 C 178.255 215.323,178.636 215.174,178.876 214.790 C 179.165 214.328,179.497 214.257,181.392 214.257 C 183.341 214.257,183.593 214.314,183.744 214.790 C 183.871 215.190,184.147 215.323,184.853 215.323 C 185.569 215.323,185.826 215.450,185.932 215.856 C 186.022 216.200,186.296 216.389,186.704 216.389 C 187.052 216.389,187.487 216.629,187.670 216.922 C 187.940 217.355,188.292 217.455,189.538 217.455 C 190.895 217.455,191.073 217.393,191.073 216.922 C 191.073 216.567,191.250 216.389,191.606 216.389 C 191.899 216.389,192.139 216.284,192.139 216.155 C 192.139 216.026,192.784 215.423,193.573 214.815 C 195.301 213.481,195.961 211.326,194.642 211.326 C 194.438 211.326,194.270 211.143,194.270 210.919 C 194.270 210.696,193.987 210.405,193.641 210.274 C 193.294 210.142,192.938 209.845,192.850 209.614 C 192.752 209.359,192.370 209.194,191.880 209.194 C 191.250 209.194,191.073 209.077,191.073 208.661 C 191.073 208.219,190.895 208.128,190.038 208.128 C 189.227 208.128,188.973 208.012,188.863 207.595 C 188.746 207.145,188.500 207.062,187.293 207.062 C 186.191 207.062,185.756 206.939,185.405 206.529 C 184.986 206.040,184.619 205.996,180.958 205.996 C 177.240 205.996,176.948 206.032,176.682 206.529 M277.326 206.480 C 276.989 206.853,276.398 207.033,275.241 207.117 C 274.093 207.200,273.553 207.363,273.375 207.681 C 273.237 207.927,272.832 208.128,272.474 208.128 C 272.112 208.128,271.676 208.364,271.490 208.661 C 271.307 208.954,270.887 209.194,270.555 209.194 C 270.143 209.194,269.953 209.352,269.953 209.696 C 269.953 209.974,269.715 210.260,269.420 210.337 C 269.127 210.414,268.887 210.668,268.887 210.901 C 268.887 211.148,268.664 211.326,268.354 211.326 C 267.999 211.326,267.821 211.503,267.821 211.859 C 267.821 212.169,267.644 212.392,267.397 212.392 C 267.163 212.392,266.909 212.632,266.833 212.925 C 266.756 213.218,266.533 213.458,266.337 213.458 C 266.141 213.458,265.903 213.869,265.809 214.372 C 265.714 214.875,265.481 215.346,265.290 215.419 C 265.099 215.493,264.862 216.034,264.763 216.622 C 264.663 217.210,264.411 217.832,264.203 218.005 C 263.650 218.464,263.644 228.595,264.196 228.807 C 264.401 228.886,264.647 229.471,264.742 230.108 C 264.838 230.744,265.073 231.326,265.265 231.399 C 265.457 231.473,265.688 231.903,265.778 232.356 C 265.876 232.843,266.108 233.178,266.349 233.178 C 266.573 233.178,266.755 233.401,266.755 233.675 C 266.755 233.948,267.035 234.457,267.376 234.807 C 267.718 235.157,268.074 235.653,268.167 235.909 C 268.261 236.166,268.552 236.376,268.815 236.376 C 269.077 236.376,269.442 236.616,269.625 236.909 C 269.808 237.202,270.183 237.442,270.458 237.442 C 270.733 237.442,271.020 237.681,271.097 237.975 C 271.202 238.379,271.460 238.508,272.162 238.508 C 272.865 238.508,273.123 238.637,273.228 239.041 C 273.335 239.449,273.592 239.574,274.325 239.574 C 274.933 239.574,275.481 239.772,275.825 240.115 C 276.641 240.931,287.522 240.905,287.736 240.087 C 287.838 239.696,288.107 239.574,288.864 239.574 C 289.519 239.574,290.022 239.392,290.340 239.041 C 290.605 238.748,291.103 238.508,291.447 238.508 C 291.894 238.508,292.072 238.356,292.072 237.975 C 292.072 237.584,292.250 237.442,292.738 237.442 C 293.105 237.442,293.404 237.315,293.404 237.159 C 293.404 237.004,293.511 236.943,293.641 237.023 C 293.770 237.104,293.942 236.919,294.022 236.612 C 294.103 236.305,294.296 236.135,294.453 236.232 C 294.853 236.479,295.270 235.238,295.270 233.802 C 295.270 232.819,295.171 232.569,294.737 232.456 C 294.444 232.379,294.204 232.147,294.204 231.939 C 294.204 231.732,294.018 231.491,293.791 231.404 C 293.564 231.317,292.894 230.781,292.303 230.213 C 291.022 228.982,288.429 228.654,288.158 229.689 C 288.085 229.968,287.797 230.257,287.517 230.330 C 287.237 230.403,287.009 230.654,287.009 230.888 C 287.009 231.163,286.774 231.312,286.342 231.312 C 285.976 231.312,285.436 231.552,285.143 231.845 C 284.673 232.316,284.255 232.378,281.577 232.378 C 278.767 232.378,278.533 232.339,278.404 231.845 C 278.310 231.486,278.040 231.312,277.576 231.312 C 277.175 231.312,276.747 231.089,276.554 230.779 C 276.371 230.486,276.010 230.247,275.752 230.247 C 275.474 230.247,275.283 230.046,275.283 229.755 C 275.283 229.484,275.043 229.046,274.750 228.781 C 274.457 228.516,274.217 228.066,274.217 227.782 C 274.217 227.489,273.986 227.205,273.684 227.126 C 272.980 226.942,272.849 220.752,273.544 220.486 C 273.760 220.403,274.013 219.927,274.106 219.428 C 274.200 218.929,274.435 218.521,274.629 218.521 C 274.822 218.521,275.053 218.292,275.142 218.013 C 275.231 217.733,275.479 217.437,275.693 217.355 C 275.907 217.273,276.083 217.022,276.083 216.797 C 276.083 216.561,276.317 216.389,276.641 216.389 C 276.974 216.389,277.254 216.175,277.338 215.856 C 277.436 215.479,277.701 215.323,278.243 215.323 C 278.721 215.323,279.135 215.122,279.342 214.790 C 279.633 214.325,279.964 214.257,281.945 214.257 C 283.927 214.257,284.258 214.325,284.548 214.790 C 284.776 215.155,285.170 215.323,285.794 215.323 C 286.472 215.323,286.750 215.460,286.875 215.856 C 286.968 216.149,287.208 216.389,287.408 216.389 C 287.608 216.389,287.848 216.629,287.941 216.922 C 288.044 217.245,288.345 217.455,288.705 217.455 C 289.033 217.455,289.444 217.599,289.620 217.775 C 289.869 218.024,290.011 218.024,290.260 217.775 C 290.436 217.599,290.867 217.455,291.217 217.455 C 291.631 217.455,291.904 217.268,291.995 216.922 C 292.072 216.627,292.358 216.389,292.636 216.389 C 292.960 216.389,293.138 216.200,293.138 215.856 C 293.138 215.501,293.316 215.323,293.671 215.323 C 294.026 215.323,294.204 215.145,294.204 214.790 C 294.204 214.435,294.382 214.257,294.737 214.257 C 295.205 214.257,295.270 214.080,295.270 212.791 C 295.270 211.503,295.205 211.326,294.737 211.326 C 294.382 211.326,294.204 211.148,294.204 210.793 C 294.204 210.437,294.026 210.260,293.671 210.260 C 293.316 210.260,293.138 210.082,293.138 209.727 C 293.138 209.383,292.960 209.194,292.636 209.194 C 292.358 209.194,292.072 208.956,291.995 208.661 C 291.889 208.257,291.631 208.128,290.929 208.128 C 290.226 208.128,289.968 207.999,289.863 207.595 C 289.745 207.143,289.499 207.062,288.246 207.062 C 287.116 207.062,286.707 206.952,286.508 206.596 C 286.085 205.838,277.999 205.736,277.326 206.480 M29.112 223.784 L 29.181 240.506 41.607 240.576 C 53.859 240.644,54.036 240.637,54.174 240.109 C 54.251 239.815,54.505 239.574,54.739 239.574 C 55.283 239.574,55.380 233.235,54.843 232.698 C 54.608 232.463,52.256 232.378,45.916 232.378 L 37.308 232.378 37.308 229.718 L 37.308 227.057 44.704 226.986 L 52.099 226.915 52.099 223.318 L 52.099 219.720 44.704 219.649 L 37.308 219.579 37.308 216.918 L 37.308 214.257 45.703 214.257 L 54.097 214.257 54.097 210.660 L 54.097 207.062 41.570 207.062 L 29.043 207.062 29.112 223.784 M58.480 207.403 C 58.126 208.326,58.499 240.129,58.867 240.356 C 59.925 241.010,66.304 240.690,67.145 239.941 L 67.955 239.219 67.955 232.601 L 67.955 225.983 68.488 226.516 C 68.781 226.809,69.021 227.240,69.021 227.473 C 69.021 227.707,69.260 227.961,69.554 228.037 C 69.954 228.142,70.087 228.401,70.087 229.078 C 70.087 229.802,70.192 229.980,70.620 229.980 C 71.001 229.980,71.153 230.158,71.153 230.605 C 71.153 230.949,71.392 231.447,71.686 231.712 C 71.979 231.977,72.219 232.416,72.219 232.686 C 72.219 233.000,72.411 233.178,72.751 233.178 C 73.186 233.178,73.284 233.356,73.284 234.136 C 73.284 234.869,73.409 235.126,73.817 235.233 C 74.112 235.310,74.350 235.596,74.350 235.874 C 74.350 236.336,74.591 236.376,77.415 236.376 L 80.480 236.376 80.480 235.710 C 80.480 235.343,80.607 235.043,80.762 235.043 C 80.917 235.043,80.978 234.936,80.897 234.805 C 80.816 234.674,80.928 234.497,81.147 234.413 C 81.366 234.329,81.546 234.025,81.546 233.737 C 81.546 233.448,81.784 233.138,82.079 233.045 C 82.448 232.927,82.612 232.641,82.612 232.112 C 82.612 231.582,82.775 231.297,83.145 231.179 C 83.516 231.061,83.678 230.776,83.678 230.238 C 83.678 229.739,83.866 229.365,84.211 229.181 C 84.504 229.024,84.744 228.660,84.744 228.372 C 84.744 228.084,84.911 227.848,85.115 227.848 C 85.516 227.848,85.809 227.290,85.809 226.525 C 85.809 226.261,86.049 225.982,86.342 225.905 C 86.865 225.769,86.875 225.897,86.875 232.670 C 86.875 241.308,86.483 240.640,91.556 240.640 C 93.545 240.640,95.404 240.515,95.687 240.364 C 96.188 240.096,96.203 239.628,96.203 223.575 L 96.203 207.062 92.072 207.062 C 88.119 207.062,87.941 207.085,87.941 207.595 C 87.941 207.950,87.764 208.128,87.408 208.128 C 87.053 208.128,86.875 208.306,86.875 208.661 C 86.875 208.954,86.636 209.434,86.342 209.727 C 86.049 210.020,85.809 210.486,85.809 210.762 C 85.809 211.040,85.571 211.326,85.276 211.403 C 84.890 211.504,84.744 211.766,84.744 212.357 C 84.744 212.900,84.565 213.268,84.211 213.458 C 83.917 213.615,83.678 213.960,83.678 214.225 C 83.678 214.491,83.438 214.925,83.145 215.190 C 82.851 215.455,82.612 215.893,82.612 216.164 C 82.612 216.434,82.441 216.656,82.233 216.656 C 82.023 216.656,81.770 217.040,81.664 217.522 C 81.560 217.998,81.250 218.544,80.977 218.736 C 80.703 218.927,80.480 219.373,80.480 219.726 C 80.480 220.095,80.253 220.489,79.947 220.653 C 79.654 220.810,79.414 221.174,79.414 221.462 C 79.414 221.750,79.243 221.985,79.035 221.985 C 78.827 221.985,78.575 222.357,78.475 222.812 C 78.270 223.746,77.282 224.938,77.282 224.250 C 77.282 224.028,77.045 223.851,76.749 223.851 C 76.321 223.851,76.216 223.673,76.216 222.949 C 76.216 222.272,76.083 222.013,75.683 221.908 C 75.390 221.831,75.150 221.547,75.150 221.275 C 75.150 221.003,74.910 220.631,74.617 220.448 C 74.313 220.258,74.084 219.827,74.084 219.443 C 74.084 219.073,73.907 218.703,73.691 218.620 C 73.476 218.537,73.222 218.061,73.129 217.563 C 73.032 217.048,72.799 216.656,72.589 216.656 C 72.385 216.656,72.219 216.480,72.219 216.266 C 72.219 216.052,71.996 215.662,71.723 215.400 C 71.451 215.138,71.149 214.594,71.052 214.191 C 70.955 213.787,70.709 213.458,70.505 213.458 C 70.279 213.458,70.063 213.039,69.953 212.392 C 69.843 211.736,69.628 211.326,69.397 211.326 C 69.190 211.326,69.021 211.164,69.021 210.967 C 69.021 210.770,68.781 210.392,68.488 210.127 C 68.195 209.861,67.955 209.352,67.955 208.994 C 67.955 208.579,67.771 208.297,67.446 208.212 C 67.167 208.138,66.878 207.850,66.805 207.570 C 66.637 206.929,58.723 206.770,58.480 207.403 M101.532 223.167 C 101.532 232.987,101.634 239.539,101.792 239.956 L 102.052 240.640 114.708 240.640 C 129.614 240.640,127.965 241.216,127.856 236.046 L 127.781 232.512 119.454 232.441 L 111.126 232.371 111.126 229.710 L 111.126 227.049 117.911 227.049 C 126.235 227.049,125.783 227.266,125.783 223.268 C 125.783 219.364,126.258 219.587,117.921 219.587 L 111.126 219.587 111.126 216.922 L 111.126 214.257 118.987 214.257 L 126.849 214.257 126.849 210.660 L 126.849 207.062 114.191 207.062 L 101.532 207.062 101.532 223.167 M132.243 223.784 L 132.312 240.506 136.155 240.581 C 140.811 240.670,140.430 241.109,140.436 235.643 L 140.440 231.312 142.959 231.312 C 145.718 231.312,146.602 231.756,147.000 233.342 C 147.094 233.715,147.335 234.083,147.536 234.161 C 147.737 234.238,147.901 234.528,147.901 234.805 C 147.901 235.132,148.089 235.310,148.434 235.310 C 148.775 235.310,148.967 235.487,148.967 235.801 C 148.967 236.072,149.207 236.510,149.500 236.775 C 149.793 237.041,150.033 237.490,150.033 237.774 C 150.033 238.067,150.265 238.352,150.566 238.430 C 150.861 238.508,151.099 238.794,151.099 239.072 C 151.099 239.386,151.287 239.574,151.601 239.574 C 151.879 239.574,152.165 239.812,152.242 240.107 C 152.411 240.752,160.546 240.946,161.173 240.320 C 161.661 239.831,161.591 237.708,161.086 237.708 C 160.863 237.708,160.566 237.408,160.426 237.042 C 160.287 236.676,159.990 236.376,159.767 236.376 C 159.490 236.376,159.360 236.112,159.360 235.551 C 159.360 234.951,159.216 234.689,158.827 234.588 C 158.532 234.510,158.294 234.224,158.294 233.946 C 158.294 233.670,158.128 233.444,157.924 233.444 C 157.712 233.444,157.480 233.046,157.379 232.512 C 157.283 231.999,157.087 231.579,156.944 231.579 C 156.801 231.579,156.548 231.279,156.381 230.913 C 156.214 230.546,155.916 230.247,155.720 230.247 C 155.056 230.247,155.324 229.201,156.033 229.023 C 156.664 228.864,158.294 227.556,158.294 227.208 C 158.294 227.120,158.534 226.809,158.827 226.516 C 159.121 226.223,159.360 225.732,159.360 225.425 C 159.360 225.091,159.575 224.811,159.893 224.727 C 160.404 224.594,160.426 224.364,160.426 219.131 C 160.426 213.898,160.404 213.669,159.893 213.535 C 159.552 213.446,159.360 213.171,159.360 212.771 C 159.360 212.427,159.140 211.931,158.870 211.669 C 158.600 211.407,158.304 210.983,158.212 210.726 C 158.120 210.470,157.861 210.260,157.637 210.260 C 157.412 210.260,157.229 210.093,157.229 209.889 C 157.229 209.459,156.661 209.194,155.741 209.194 C 155.387 209.194,155.111 209.104,155.128 208.994 C 155.236 208.310,155.012 208.128,154.062 208.128 C 153.251 208.128,152.997 208.012,152.887 207.595 C 152.751 207.074,152.524 207.062,142.461 207.062 L 132.175 207.062 132.243 223.784 M199.665 223.784 L 199.734 240.506 212.204 240.576 C 220.498 240.622,224.850 240.552,225.196 240.366 C 225.675 240.110,225.716 239.784,225.716 236.233 L 225.716 232.378 217.322 232.378 L 208.927 232.378 208.927 229.714 L 208.927 227.049 215.723 227.049 L 222.518 227.049 222.518 223.318 L 222.518 219.587 215.723 219.587 L 208.927 219.587 208.927 216.922 L 208.927 214.257 216.789 214.257 L 224.650 214.257 224.650 210.660 L 224.650 207.062 212.123 207.062 L 199.596 207.062 199.665 223.784 M229.076 207.483 C 228.687 208.498,228.902 238.777,229.304 239.555 C 229.841 240.592,230.057 240.640,234.272 240.640 L 237.988 240.640 238.248 239.956 C 238.395 239.569,238.508 235.927,238.508 231.562 C 238.508 224.028,238.520 223.851,239.041 223.851 C 239.396 223.851,239.574 224.028,239.574 224.384 C 239.574 224.739,239.751 224.917,240.107 224.917 C 240.462 224.917,240.640 225.094,240.640 225.450 C 240.640 225.743,240.859 226.202,241.126 226.469 C 241.394 226.737,241.690 227.157,241.784 227.402 C 241.878 227.647,242.139 227.848,242.363 227.848 C 242.589 227.848,242.771 228.078,242.771 228.363 C 242.771 228.646,243.011 228.954,243.304 229.047 C 243.598 229.140,243.837 229.362,243.837 229.539 C 243.837 229.716,244.047 230.064,244.304 230.311 C 245.336 231.307,245.683 231.759,245.947 232.452 C 246.098 232.851,246.337 233.178,246.478 233.178 C 246.618 233.178,246.809 233.418,246.902 233.711 C 246.995 234.004,247.243 234.244,247.453 234.244 C 247.663 234.244,247.835 234.435,247.835 234.669 C 247.835 234.902,248.075 235.156,248.368 235.233 C 248.663 235.310,248.901 235.596,248.901 235.874 C 248.901 236.198,249.089 236.376,249.434 236.376 C 249.781 236.376,249.967 236.553,249.967 236.886 C 249.967 237.387,250.326 237.889,252.008 239.738 L 252.851 240.664 256.193 240.624 C 261.034 240.565,260.482 242.682,260.557 223.888 C 260.593 215.091,260.550 207.706,260.462 207.477 C 260.326 207.123,259.620 207.062,255.668 207.062 L 251.033 207.062 251.012 215.256 C 251.000 219.763,250.930 223.301,250.856 223.118 C 250.782 222.935,250.552 222.785,250.344 222.785 C 250.137 222.785,249.967 222.545,249.967 222.252 C 249.967 221.897,249.789 221.719,249.434 221.719 C 249.078 221.719,248.901 221.541,248.901 221.186 C 248.901 220.831,248.723 220.653,248.368 220.653 C 248.012 220.653,247.835 220.475,247.835 220.120 C 247.835 219.827,247.595 219.347,247.302 219.054 C 247.009 218.761,246.769 218.341,246.769 218.121 C 246.769 217.901,246.586 217.722,246.362 217.722 C 246.139 217.722,245.842 217.422,245.703 217.055 C 245.564 216.689,245.281 216.389,245.074 216.389 C 244.868 216.389,244.636 216.149,244.560 215.856 C 244.483 215.563,244.229 215.323,243.996 215.323 C 243.762 215.323,243.571 215.143,243.571 214.923 C 243.571 214.704,243.331 214.284,243.038 213.991 C 242.745 213.698,242.505 213.274,242.505 213.050 C 242.505 212.825,242.330 212.574,242.115 212.492 C 241.901 212.410,241.653 212.114,241.564 211.834 C 241.476 211.555,241.231 211.326,241.021 211.326 C 240.811 211.326,240.640 211.135,240.640 210.901 C 240.640 210.668,240.400 210.414,240.107 210.337 C 239.813 210.260,239.574 210.021,239.574 209.804 C 239.574 209.588,239.334 209.348,239.041 209.271 C 238.746 209.194,238.508 208.908,238.508 208.630 C 238.508 207.126,229.627 206.047,229.076 207.483 M298.468 223.335 C 298.468 234.043,298.562 239.785,298.744 240.124 C 299.080 240.752,306.868 240.927,307.475 240.320 C 307.717 240.078,307.795 235.985,307.795 223.531 L 307.795 207.062 303.131 207.062 L 298.468 207.062 298.468 223.335 M322.718 208.097 C 322.718 208.908,322.603 209.162,322.185 209.271 C 321.777 209.378,321.652 209.635,321.652 210.368 C 321.652 211.009,321.529 211.326,321.281 211.326 C 320.834 211.326,320.586 211.900,320.586 212.937 C 320.586 213.433,320.397 213.807,320.053 213.991 C 319.662 214.200,319.520 214.549,319.520 215.301 C 319.520 216.103,319.404 216.357,318.987 216.466 C 318.580 216.573,318.454 216.830,318.454 217.554 C 318.454 218.229,318.301 218.584,317.921 218.787 C 317.543 218.990,317.388 219.345,317.388 220.012 C 317.388 220.537,317.277 220.882,317.135 220.794 C 316.821 220.600,316.322 221.491,316.322 222.245 C 316.322 222.554,316.083 223.065,315.789 223.379 C 315.456 223.737,315.256 224.320,315.256 224.936 C 315.256 225.696,315.135 225.952,314.724 226.060 C 314.315 226.167,314.191 226.423,314.191 227.157 C 314.191 227.798,314.068 228.115,313.819 228.115 C 313.394 228.115,313.125 228.681,313.125 229.574 C 313.125 229.912,312.951 230.256,312.740 230.337 C 312.528 230.418,312.272 230.941,312.171 231.498 C 312.070 232.056,311.764 232.726,311.490 232.988 C 311.194 233.272,310.993 233.835,310.993 234.378 C 310.993 235.018,310.833 235.376,310.460 235.576 C 310.126 235.755,309.927 236.134,309.927 236.592 C 309.927 237.002,309.684 237.531,309.375 237.795 C 308.939 238.169,308.862 238.444,309.006 239.120 C 309.327 240.620,309.388 240.640,313.779 240.640 L 317.832 240.640 318.676 239.337 C 319.146 238.611,319.520 237.680,319.520 237.236 C 319.520 236.662,319.670 236.399,320.053 236.299 C 320.458 236.193,320.586 235.935,320.586 235.230 C 320.586 234.650,320.736 234.243,320.986 234.147 C 321.206 234.063,321.386 233.810,321.386 233.586 C 321.386 233.231,322.212 233.178,327.747 233.178 L 334.109 233.178 334.280 234.244 C 334.390 234.934,334.590 235.310,334.847 235.310 C 335.124 235.310,335.243 235.597,335.243 236.267 C 335.243 237.001,335.368 237.258,335.776 237.364 C 336.188 237.472,336.309 237.728,336.309 238.488 C 336.309 240.434,336.804 240.640,341.475 240.640 C 346.256 240.640,347.200 240.171,346.184 238.304 C 346.045 238.050,345.859 237.385,345.769 236.828 C 345.680 236.271,345.448 235.754,345.253 235.679 C 345.059 235.604,344.824 235.071,344.732 234.494 C 344.624 233.818,344.423 233.444,344.167 233.444 C 343.949 233.444,343.756 233.205,343.738 232.911 C 343.719 232.618,343.674 232.258,343.638 232.112 C 343.601 231.965,343.556 231.726,343.538 231.579 C 343.519 231.432,343.324 231.312,343.105 231.312 C 342.829 231.312,342.705 231.036,342.705 230.421 C 342.705 229.868,342.503 229.347,342.172 229.047 C 341.877 228.780,341.639 228.227,341.639 227.807 C 341.639 227.390,341.399 226.809,341.106 226.516 C 340.811 226.220,340.573 225.627,340.573 225.185 C 340.573 224.677,340.380 224.268,340.040 224.055 C 339.688 223.835,339.507 223.434,339.507 222.872 C 339.507 222.255,339.360 221.975,338.974 221.852 C 338.574 221.725,338.441 221.449,338.441 220.743 C 338.441 220.028,338.314 219.770,337.908 219.664 C 337.491 219.555,337.375 219.301,337.375 218.490 C 337.375 217.810,337.192 217.272,336.842 216.922 C 336.539 216.619,336.309 216.034,336.309 215.565 C 336.309 214.964,336.164 214.702,335.776 214.601 C 335.359 214.492,335.243 214.237,335.243 213.427 C 335.243 212.569,335.152 212.392,334.710 212.392 C 334.266 212.392,334.177 212.214,334.177 211.326 C 334.177 210.437,334.088 210.260,333.644 210.260 C 333.191 210.260,333.111 210.082,333.111 209.080 C 333.111 207.112,332.971 207.062,327.496 207.062 L 322.718 207.062 322.718 208.097 M348.035 223.307 L 348.035 239.553 348.623 240.101 C 349.339 240.768,372.230 240.953,372.768 240.296 C 372.913 240.119,373.050 238.264,373.071 236.176 L 373.110 232.378 365.236 232.378 L 357.362 232.378 357.362 219.720 L 357.362 207.062 352.698 207.062 L 348.035 207.062 348.035 223.307 M147.307 214.790 C 147.559 215.195,147.928 215.323,148.836 215.323 C 149.856 215.323,150.033 215.402,150.033 215.856 C 150.033 216.211,150.211 216.389,150.566 216.389 C 151.064 216.389,151.099 216.567,151.099 219.054 C 151.099 221.541,151.064 221.719,150.566 221.719 C 150.211 221.719,150.033 221.897,150.033 222.252 C 150.033 222.692,149.856 222.785,149.009 222.785 C 148.322 222.785,147.825 222.961,147.502 223.318 C 147.069 223.796,146.681 223.851,143.730 223.851 L 140.440 223.851 140.440 219.054 L 140.440 214.257 143.707 214.257 C 146.685 214.257,147.003 214.304,147.307 214.790 M328.088 219.320 C 328.241 219.760,328.461 220.120,328.577 220.120 C 328.692 220.120,328.869 220.667,328.969 221.335 C 329.069 222.003,329.323 222.615,329.532 222.696 C 329.742 222.776,329.913 223.119,329.913 223.458 C 329.913 224.351,330.183 224.917,330.608 224.917 C 330.812 224.917,330.979 225.157,330.979 225.450 C 330.979 225.953,330.802 225.983,327.835 225.983 L 324.691 225.983 324.803 225.017 C 324.865 224.486,325.141 223.826,325.416 223.551 C 325.691 223.276,325.916 222.704,325.916 222.280 C 325.916 221.841,326.088 221.443,326.316 221.356 C 326.598 221.248,326.716 220.808,326.716 219.862 C 326.716 218.232,327.588 217.888,328.088 219.320 " stroke="none" fill="#94d4b4" fill-rule="evenodd"></path><path id="path2" d="M30.113 86.476 L 30.113 117.522 34.669 117.522 C 39.000 117.522,39.231 117.495,39.363 116.989 C 39.482 116.534,39.727 116.456,41.029 116.456 C 42.217 116.456,42.663 116.338,43.038 115.923 C 43.365 115.562,43.859 115.390,44.570 115.390 C 45.395 115.390,45.649 115.276,45.759 114.857 C 45.865 114.453,46.122 114.324,46.825 114.324 C 47.527 114.324,47.785 114.195,47.891 113.791 C 47.995 113.393,48.254 113.258,48.914 113.258 C 49.563 113.258,49.842 113.117,49.967 112.725 C 50.060 112.432,50.368 112.192,50.651 112.192 C 50.988 112.192,51.166 112.008,51.166 111.659 C 51.166 111.227,51.344 111.126,52.099 111.126 C 52.854 111.126,53.031 111.024,53.031 110.593 C 53.031 110.238,53.209 110.060,53.564 110.060 C 53.920 110.060,54.097 109.882,54.097 109.527 C 54.097 109.172,54.275 108.994,54.630 108.994 C 54.986 108.994,55.163 108.816,55.163 108.461 C 55.163 108.106,55.341 107.928,55.696 107.928 C 56.052 107.928,56.229 107.750,56.229 107.395 C 56.229 107.040,56.407 106.862,56.762 106.862 C 57.117 106.862,57.295 106.684,57.295 106.329 C 57.295 105.974,57.473 105.796,57.828 105.796 C 58.172 105.796,58.361 105.618,58.361 105.294 C 58.361 105.016,58.599 104.730,58.894 104.653 C 59.302 104.546,59.427 104.289,59.427 103.556 C 59.427 102.776,59.526 102.598,59.960 102.598 C 60.315 102.598,60.493 102.421,60.493 102.065 C 60.493 101.772,60.733 101.292,61.026 100.999 C 61.319 100.706,61.559 100.195,61.559 99.864 C 61.559 99.533,61.799 99.112,62.092 98.929 C 62.484 98.685,62.625 98.308,62.625 97.508 C 62.625 96.643,62.735 96.390,63.158 96.280 C 63.628 96.157,63.691 95.916,63.691 94.237 C 63.691 92.622,63.772 92.283,64.224 92.001 C 64.725 91.688,64.757 91.379,64.757 86.883 C 64.757 82.370,64.726 82.081,64.224 81.812 C 63.764 81.566,63.691 81.254,63.691 79.538 C 63.691 77.726,63.643 77.548,63.158 77.548 C 62.684 77.548,62.625 77.371,62.625 75.949 C 62.625 74.528,62.566 74.350,62.092 74.350 C 61.648 74.350,61.559 74.173,61.559 73.284 C 61.559 72.396,61.470 72.219,61.026 72.219 C 60.671 72.219,60.493 72.041,60.493 71.686 C 60.493 71.392,60.253 70.913,59.960 70.620 C 59.667 70.326,59.427 69.847,59.427 69.554 C 59.427 69.198,59.249 69.021,58.894 69.021 C 58.539 69.021,58.361 68.843,58.361 68.488 C 58.361 68.132,58.183 67.955,57.828 67.955 C 57.535 67.955,57.295 67.784,57.295 67.576 C 57.295 67.083,54.969 64.757,54.476 64.757 C 54.268 64.757,54.097 64.517,54.097 64.224 C 54.097 63.869,53.920 63.691,53.564 63.691 C 53.209 63.691,53.031 63.513,53.031 63.158 C 53.031 62.865,52.860 62.625,52.650 62.625 C 52.440 62.625,52.192 62.385,52.099 62.092 C 52.006 61.799,51.711 61.559,51.443 61.559 C 51.175 61.559,50.893 61.395,50.816 61.194 C 50.739 60.993,50.342 60.744,49.934 60.642 C 49.525 60.539,49.029 60.224,48.831 59.941 C 48.614 59.631,48.159 59.427,47.686 59.427 C 47.194 59.427,46.902 59.289,46.902 59.056 C 46.902 58.642,46.340 58.361,45.511 58.361 C 45.209 58.361,44.829 58.179,44.666 57.957 C 44.502 57.732,43.748 57.478,42.971 57.387 C 42.138 57.288,41.572 57.089,41.572 56.895 C 41.572 56.577,39.708 56.236,37.937 56.231 C 37.440 56.230,37.037 56.067,36.946 55.829 C 36.821 55.504,36.175 55.430,33.453 55.430 L 30.113 55.430 30.113 86.476 M277.149 206.278 C 277.149 206.433,277.049 206.499,276.926 206.423 C 276.804 206.348,276.704 206.461,276.704 206.675 C 276.704 206.997,276.789 206.988,277.193 206.622 C 277.749 206.118,277.793 205.996,277.415 205.996 C 277.268 205.996,277.149 206.123,277.149 206.278 M172.596 207.506 C 172.289 207.813,172.402 208.128,172.818 208.128 C 173.038 208.128,173.218 207.948,173.218 207.728 C 173.218 207.312,172.903 207.199,172.596 207.506 M170.274 208.685 C 170.019 209.162,170.045 209.228,170.461 209.148 C 170.728 209.097,170.987 208.846,171.036 208.591 C 171.160 207.946,170.634 208.011,170.274 208.685 M333.111 209.838 C 333.111 210.070,333.301 210.260,333.533 210.260 C 333.765 210.260,333.908 210.117,333.850 209.943 C 333.685 209.449,333.111 209.367,333.111 209.838 M319.654 213.724 C 319.563 213.871,319.669 213.991,319.889 213.991 C 320.108 213.991,320.362 213.871,320.453 213.724 C 320.544 213.578,320.438 213.458,320.218 213.458 C 319.998 213.458,319.744 213.578,319.654 213.724 M283.811 214.514 C 283.811 214.656,284.081 214.902,284.410 215.062 C 284.948 215.323,284.963 215.314,284.548 214.978 C 284.294 214.773,284.164 214.526,284.259 214.431 C 284.355 214.335,284.293 214.257,284.122 214.257 C 283.951 214.257,283.811 214.373,283.811 214.514 M290.333 217.732 C 290.239 217.885,289.917 217.932,289.618 217.837 C 289.259 217.723,289.135 217.763,289.254 217.955 C 289.501 218.355,290.651 218.227,290.651 217.800 C 290.651 217.383,290.561 217.364,290.333 217.732 M163.110 218.098 C 162.689 218.606,162.815 218.857,163.331 218.537 C 163.528 218.416,163.640 218.169,163.580 217.990 C 163.503 217.757,163.367 217.789,163.110 218.098 M247.235 218.998 C 247.492 219.261,247.746 219.367,247.801 219.234 C 247.855 219.101,247.735 218.888,247.534 218.761 C 246.911 218.366,246.746 218.497,247.235 218.998 M147.142 223.212 C 146.944 223.436,146.834 223.672,146.899 223.737 C 146.964 223.801,147.234 223.613,147.500 223.319 C 147.766 223.025,147.875 222.789,147.743 222.795 C 147.610 222.801,147.340 222.988,147.142 223.212 M273.151 226.618 C 273.151 226.821,273.389 227.049,273.680 227.125 C 274.129 227.242,274.167 227.187,273.937 226.756 C 273.621 226.166,273.151 226.083,273.151 226.618 M276.349 230.458 C 276.349 230.599,276.543 230.875,276.780 231.071 C 277.152 231.381,277.197 231.361,277.113 230.926 C 277.012 230.408,276.349 230.002,276.349 230.458 M245.284 231.731 C 245.514 231.962,245.703 232.281,245.703 232.442 C 245.703 232.602,245.773 232.664,245.858 232.579 C 246.073 232.363,245.479 231.312,245.141 231.312 C 244.990 231.312,245.054 231.501,245.284 231.731 M264.940 231.596 C 265.004 231.788,265.214 231.998,265.406 232.062 C 265.606 232.129,265.706 232.029,265.640 231.829 C 265.575 231.636,265.366 231.427,265.173 231.362 C 264.973 231.296,264.873 231.396,264.940 231.596 M81.005 234.521 C 80.789 234.657,80.733 234.772,80.879 234.777 C 81.026 234.781,80.966 234.901,80.746 235.043 C 80.399 235.268,80.404 235.302,80.784 235.306 C 81.025 235.308,81.298 235.113,81.390 234.872 C 81.605 234.311,81.495 234.210,81.005 234.521 M166.084 234.777 C 166.268 235.070,166.509 235.310,166.622 235.310 C 166.735 235.310,166.677 235.070,166.494 234.777 C 166.311 234.484,166.069 234.244,165.956 234.244 C 165.844 234.244,165.901 234.484,166.084 234.777 M294.015 236.639 C 293.939 236.931,293.770 237.104,293.641 237.023 C 293.511 236.943,293.404 237.014,293.404 237.182 C 293.404 237.678,294.002 237.329,294.236 236.695 C 294.356 236.373,294.386 236.109,294.304 236.109 C 294.221 236.109,294.092 236.348,294.015 236.639 M148.967 236.487 C 148.967 236.768,149.770 237.527,149.914 237.383 C 149.982 237.316,149.796 237.043,149.502 236.777 C 149.208 236.511,148.967 236.380,148.967 236.487 M269.154 236.709 C 269.154 236.948,269.282 237.223,269.438 237.319 C 269.895 237.602,269.940 237.349,269.532 236.791 C 269.216 236.358,269.154 236.345,269.154 236.709 M345.903 237.937 C 345.903 238.087,346.023 238.284,346.169 238.374 C 346.576 238.626,346.511 239.915,346.103 239.680 C 345.919 239.574,345.858 239.586,345.967 239.706 C 346.076 239.826,346.031 240.085,345.868 240.282 C 345.687 240.500,345.675 240.640,345.837 240.640 C 346.668 240.640,347.030 238.034,346.236 237.773 C 346.053 237.713,345.903 237.787,345.903 237.937 M290.341 239.039 C 290.075 239.333,289.981 239.574,290.133 239.574 C 290.468 239.574,291.133 238.812,290.954 238.633 C 290.883 238.562,290.607 238.745,290.341 239.039 M67.184 239.856 C 66.511 240.416,66.532 240.760,67.224 240.494 C 67.526 240.378,68.133 239.259,67.863 239.316 C 67.840 239.321,67.535 239.564,67.184 239.856 M54.275 239.751 C 53.833 240.193,54.098 240.658,54.630 240.373 C 54.923 240.216,55.163 239.972,55.163 239.831 C 55.163 239.538,54.543 239.483,54.275 239.751 M151.366 239.831 C 151.366 239.972,151.594 240.210,151.873 240.359 C 152.304 240.590,152.359 240.551,152.241 240.102 C 152.103 239.574,151.366 239.345,151.366 239.831 M174.284 239.811 C 174.284 239.963,174.534 240.222,174.841 240.386 C 175.317 240.641,175.384 240.614,175.304 240.198 C 175.205 239.686,174.284 239.337,174.284 239.811 M229.181 240.107 C 229.337 240.400,229.641 240.640,229.856 240.640 C 230.151 240.640,230.117 240.510,229.714 240.107 C 229.420 239.813,229.116 239.574,229.038 239.574 C 228.959 239.574,229.024 239.813,229.181 240.107 M348.035 239.984 C 348.035 240.207,348.220 240.461,348.446 240.548 C 349.082 240.792,349.141 240.526,348.560 240.028 C 348.109 239.642,348.035 239.636,348.035 239.984 " stroke="none" fill="#04b2e7" fill-rule="evenodd"></path><path id="path3" d="M118.665 158.028 C 118.588 158.323,118.301 158.561,118.024 158.561 C 117.699 158.561,117.522 158.750,117.522 159.094 C 117.522 159.449,117.344 159.627,116.989 159.627 C 116.633 159.627,116.456 159.805,116.456 160.160 C 116.456 160.515,116.278 160.693,115.923 160.693 C 115.567 160.693,115.390 160.871,115.390 161.226 C 115.390 161.581,115.212 161.759,114.857 161.759 C 114.413 161.759,114.324 161.936,114.324 162.825 L 114.324 163.891 116.434 163.891 C 118.774 163.891,119.387 163.747,119.387 163.196 C 119.387 162.992,119.627 162.825,119.920 162.825 C 120.275 162.825,120.453 162.647,120.453 162.292 C 120.453 161.961,120.631 161.759,120.922 161.759 C 121.180 161.759,121.541 161.519,121.724 161.226 C 121.914 160.922,122.345 160.693,122.729 160.693 C 123.137 160.693,123.458 160.509,123.545 160.227 C 123.625 159.970,123.801 159.580,123.938 159.360 C 124.871 157.863,124.326 157.495,121.177 157.495 C 119.028 157.495,118.791 157.545,118.665 158.028 M59.544 164.238 C 59.119 165.345,59.572 187.394,60.027 187.726 C 60.283 187.913,60.493 188.314,60.493 188.615 C 60.493 189.444,60.774 190.007,61.188 190.007 C 61.392 190.007,61.559 190.247,61.559 190.540 C 61.559 190.895,61.737 191.073,62.092 191.073 C 62.447 191.073,62.625 191.250,62.625 191.606 C 62.625 192.020,62.803 192.139,63.422 192.139 C 63.931 192.139,64.340 192.332,64.552 192.672 C 64.783 193.040,65.174 193.205,65.823 193.205 C 66.472 193.205,66.863 193.369,67.093 193.738 C 67.401 194.230,67.715 194.270,71.180 194.270 C 74.709 194.270,74.942 194.239,75.073 193.738 C 75.188 193.296,75.436 193.205,76.511 193.205 C 77.522 193.205,77.884 193.086,78.143 192.672 C 78.326 192.378,78.687 192.139,78.945 192.139 C 79.236 192.139,79.414 191.937,79.414 191.606 C 79.414 191.250,79.591 191.073,79.947 191.073 C 80.302 191.073,80.480 190.895,80.480 190.540 C 80.480 190.184,80.657 190.007,81.013 190.007 C 81.447 190.007,81.546 189.829,81.546 189.049 C 81.546 188.315,81.670 188.059,82.079 187.952 C 82.601 187.815,82.612 187.588,82.612 176.385 L 82.612 164.957 81.013 164.957 L 79.414 164.957 79.414 173.351 C 79.414 180.321,79.351 181.746,79.045 181.746 C 78.569 181.746,78.356 182.575,78.351 184.446 C 78.348 185.701,78.264 185.969,77.835 186.081 C 77.512 186.166,77.291 186.496,77.236 186.976 C 77.176 187.501,76.916 187.849,76.399 188.095 C 75.986 188.292,75.584 188.623,75.504 188.830 C 75.420 189.049,74.993 189.207,74.484 189.207 C 73.951 189.207,73.548 189.364,73.455 189.607 C 73.335 189.919,72.803 190.007,71.028 190.007 C 69.184 190.007,68.754 189.931,68.754 189.607 C 68.754 189.329,68.475 189.207,67.839 189.207 C 67.159 189.207,66.881 189.071,66.755 188.674 C 66.662 188.381,66.423 188.141,66.223 188.141 C 66.022 188.141,65.783 187.901,65.690 187.608 C 65.597 187.315,65.349 187.075,65.139 187.075 C 64.929 187.075,64.757 186.835,64.757 186.542 C 64.757 186.187,64.579 186.009,64.224 186.009 C 63.700 186.009,63.691 185.832,63.691 175.628 L 63.691 165.247 63.013 164.569 C 62.244 163.800,59.801 163.567,59.544 164.238 M170.020 164.424 C 170.020 164.912,169.842 164.957,167.888 164.957 C 165.934 164.957,165.756 165.001,165.756 165.490 C 165.756 165.934,165.579 166.023,164.690 166.023 C 163.802 166.023,163.624 166.111,163.624 166.556 C 163.624 166.943,163.447 167.089,162.973 167.089 C 162.615 167.089,162.165 167.306,161.974 167.573 C 161.782 167.839,161.427 168.130,161.184 168.221 C 160.942 168.311,160.662 168.753,160.564 169.203 C 160.464 169.657,160.212 170.020,159.997 170.020 C 159.784 170.020,159.531 170.230,159.435 170.486 C 159.339 170.743,159.116 171.073,158.940 171.219 C 158.764 171.366,158.538 171.953,158.438 172.523 C 158.338 173.094,158.085 173.732,157.875 173.941 C 157.298 174.519,157.317 184.359,157.896 184.581 C 158.117 184.666,158.371 185.194,158.461 185.755 C 158.550 186.317,158.790 186.839,158.992 186.917 C 159.195 186.995,159.360 187.198,159.360 187.369 C 159.360 187.540,159.660 187.958,160.027 188.298 C 160.393 188.637,160.693 189.161,160.693 189.461 C 160.693 189.818,160.867 190.007,161.195 190.007 C 161.473 190.007,161.759 190.245,161.836 190.540 C 161.938 190.928,162.200 191.073,162.800 191.073 C 163.447 191.073,163.624 191.187,163.624 191.606 C 163.624 192.020,163.802 192.139,164.421 192.139 C 164.930 192.139,165.339 192.332,165.552 192.672 C 165.820 193.102,166.173 193.205,167.388 193.205 C 168.668 193.205,168.913 193.284,169.031 193.738 C 169.162 194.236,169.395 194.270,172.660 194.270 C 175.972 194.270,176.149 194.243,176.149 193.738 C 176.149 193.264,176.327 193.205,177.748 193.205 C 179.169 193.205,179.347 193.145,179.347 192.672 C 179.347 192.227,179.525 192.139,180.413 192.139 C 181.301 192.139,181.479 192.050,181.479 191.606 C 181.479 191.250,181.657 191.073,182.012 191.073 C 182.367 191.073,182.545 190.895,182.545 190.540 C 182.545 190.184,182.723 190.007,183.078 190.007 C 183.433 190.007,183.611 189.829,183.611 189.474 C 183.611 189.118,183.789 188.941,184.144 188.941 C 184.437 188.941,184.677 188.775,184.677 188.572 C 184.677 188.369,184.917 188.141,185.210 188.064 C 185.595 187.963,185.743 187.701,185.743 187.118 C 185.743 186.546,185.898 186.263,186.276 186.143 C 186.703 186.007,186.809 185.739,186.809 184.792 C 186.809 183.960,186.919 183.611,187.180 183.611 C 188.114 183.611,188.259 175.734,187.342 174.817 C 186.986 174.461,186.809 173.928,186.809 173.218 C 186.809 172.330,186.720 172.152,186.276 172.152 C 185.842 172.152,185.743 171.974,185.743 171.194 C 185.743 170.476,185.616 170.203,185.234 170.104 C 184.955 170.031,184.666 169.742,184.593 169.462 C 184.520 169.183,184.283 168.954,184.067 168.954 C 183.850 168.954,183.610 168.714,183.534 168.421 C 183.457 168.128,183.203 167.888,182.970 167.888 C 182.736 167.888,182.545 167.708,182.545 167.488 C 182.545 167.266,182.308 167.089,182.012 167.089 C 181.657 167.089,181.479 166.911,181.479 166.556 C 181.479 166.111,181.301 166.023,180.413 166.023 C 179.525 166.023,179.347 165.934,179.347 165.490 C 179.347 165.003,179.169 164.957,177.323 164.957 C 175.524 164.957,175.284 164.898,175.160 164.424 C 175.034 163.939,174.797 163.891,172.521 163.891 C 170.198 163.891,170.020 163.929,170.020 164.424 M39.973 165.490 C 39.647 165.816,39.440 166.378,39.440 166.937 C 39.440 167.618,39.304 167.895,38.907 168.021 C 38.516 168.146,38.374 168.425,38.374 169.074 C 38.374 169.734,38.239 169.993,37.841 170.097 C 37.433 170.204,37.308 170.461,37.308 171.194 C 37.308 171.835,37.186 172.152,36.937 172.152 C 36.512 172.152,36.243 172.718,36.243 173.611 C 36.243 173.950,36.069 174.293,35.857 174.375 C 35.646 174.456,35.392 174.950,35.294 175.473 C 35.196 175.996,34.937 176.523,34.718 176.646 C 34.493 176.772,34.260 177.411,34.180 178.117 C 34.084 178.964,33.879 179.452,33.542 179.633 C 33.203 179.814,33.045 180.194,33.045 180.822 C 33.045 181.440,32.920 181.746,32.668 181.746 C 32.437 181.746,32.223 182.156,32.112 182.811 C 32.001 183.467,31.787 183.877,31.556 183.877 C 31.294 183.877,31.179 184.203,31.179 184.943 C 31.179 185.832,31.090 186.009,30.646 186.009 C 30.202 186.009,30.113 186.187,30.113 187.075 C 30.113 187.964,30.024 188.141,29.580 188.141 C 29.142 188.141,29.047 188.319,29.047 189.143 C 29.047 189.856,28.894 190.241,28.514 190.478 C 28.070 190.755,27.981 191.099,27.981 192.541 L 27.981 194.270 29.980 194.270 L 31.979 194.270 31.979 193.205 C 31.979 192.316,32.068 192.139,32.512 192.139 C 32.956 192.139,33.045 191.961,33.045 191.073 C 33.045 190.184,33.133 190.007,33.578 190.007 C 34.012 190.007,34.111 189.829,34.111 189.049 C 34.111 188.315,34.235 188.059,34.644 187.952 C 35.044 187.847,35.177 187.588,35.177 186.911 L 35.177 186.009 42.197 186.009 C 50.029 186.009,50.100 186.026,50.100 187.854 C 50.100 188.500,50.237 188.760,50.633 188.863 C 51.050 188.973,51.166 189.227,51.166 190.038 C 51.166 190.895,51.257 191.073,51.699 191.073 C 52.143 191.073,52.232 191.250,52.232 192.139 C 52.232 193.027,52.321 193.205,52.765 193.205 C 53.124 193.205,53.298 193.382,53.298 193.749 C 53.298 194.255,53.436 194.288,55.230 194.216 L 57.162 194.137 57.242 192.738 C 57.315 191.479,57.268 191.339,56.776 191.339 C 56.316 191.339,56.229 191.170,56.229 190.273 C 56.229 189.385,56.140 189.207,55.696 189.207 C 55.252 189.207,55.163 189.030,55.163 188.141 C 55.163 187.253,55.074 187.075,54.630 187.075 C 54.186 187.075,54.097 186.898,54.097 186.009 C 54.097 185.121,54.008 184.943,53.564 184.943 C 53.104 184.943,53.031 184.766,53.031 183.644 C 53.031 182.857,52.885 182.222,52.659 182.035 C 52.455 181.865,52.208 181.305,52.112 180.789 C 52.015 180.274,51.777 179.791,51.582 179.716 C 51.388 179.642,51.153 179.108,51.061 178.531 C 50.953 177.855,50.752 177.482,50.497 177.482 C 50.255 177.482,50.100 177.230,50.100 176.837 C 50.100 175.917,49.835 175.350,49.405 175.350 C 49.157 175.350,49.034 175.033,49.034 174.392 C 49.034 173.659,48.909 173.402,48.501 173.295 C 48.102 173.191,47.968 172.932,47.968 172.263 C 47.968 171.644,47.805 171.284,47.435 171.086 C 47.105 170.909,46.901 170.525,46.898 170.077 C 46.893 168.945,46.608 168.155,46.205 168.155 C 45.959 168.155,45.836 167.835,45.836 167.197 C 45.836 166.463,45.711 166.207,45.303 166.100 C 45.008 166.023,44.770 165.736,44.770 165.459 C 44.770 164.686,40.751 164.712,39.973 165.490 M86.875 165.889 C 86.875 166.644,86.977 166.822,87.408 166.822 C 87.853 166.822,87.941 167.000,87.941 167.888 C 87.941 168.776,88.030 168.954,88.474 168.954 C 88.830 168.954,89.007 169.132,89.007 169.487 C 89.007 169.842,89.185 170.020,89.540 170.020 C 89.871 170.020,90.073 170.198,90.073 170.489 C 90.073 170.747,90.313 171.108,90.606 171.291 C 90.946 171.503,91.139 171.912,91.139 172.421 C 91.139 173.040,91.258 173.218,91.672 173.218 C 92.028 173.218,92.205 173.396,92.205 173.751 C 92.205 174.106,92.383 174.284,92.738 174.284 C 93.086 174.284,93.271 174.461,93.271 174.795 C 93.271 175.589,93.558 176.149,93.966 176.149 C 94.179 176.149,94.337 176.419,94.337 176.784 C 94.337 177.195,94.525 177.469,94.870 177.559 C 95.274 177.665,95.403 177.922,95.403 178.625 C 95.403 179.327,95.274 179.585,94.870 179.691 C 94.462 179.798,94.337 180.054,94.337 180.788 C 94.337 181.568,94.238 181.746,93.804 181.746 C 93.449 181.746,93.271 181.923,93.271 182.278 C 93.271 182.634,93.093 182.811,92.738 182.811 C 92.394 182.811,92.205 182.989,92.205 183.313 C 92.205 183.591,91.967 183.877,91.672 183.955 C 91.264 184.061,91.139 184.318,91.139 185.052 C 91.139 185.832,91.040 186.009,90.606 186.009 C 90.251 186.009,90.073 186.187,90.073 186.542 C 90.073 186.898,89.896 187.075,89.540 187.075 C 89.196 187.075,89.007 187.253,89.007 187.577 C 89.007 187.855,88.769 188.141,88.474 188.218 C 88.092 188.318,87.941 188.582,87.941 189.151 C 87.941 189.720,87.791 189.984,87.408 190.084 C 87.115 190.161,86.875 190.406,86.875 190.630 C 86.875 190.854,86.636 191.113,86.342 191.206 C 85.798 191.379,85.590 192.856,85.971 193.849 C 86.240 194.548,89.714 194.451,89.940 193.738 C 90.033 193.444,90.341 193.205,90.624 193.205 C 90.962 193.205,91.139 193.021,91.139 192.672 C 91.139 192.378,91.289 192.134,91.472 192.129 C 91.875 192.117,93.271 189.978,93.271 189.372 C 93.271 189.135,93.407 188.941,93.574 188.941 C 94.050 188.941,95.137 187.635,95.137 187.064 C 95.137 186.779,95.376 186.397,95.670 186.214 C 95.963 186.031,96.203 185.670,96.203 185.412 C 96.203 185.121,96.404 184.943,96.736 184.943 C 97.085 184.943,97.268 184.766,97.268 184.428 C 97.268 184.145,97.508 183.837,97.801 183.744 C 98.095 183.651,98.334 183.354,98.334 183.085 C 98.334 182.726,98.477 182.632,98.867 182.734 C 99.162 182.811,99.400 183.098,99.400 183.376 C 99.400 183.652,99.619 184.096,99.887 184.364 C 100.155 184.632,100.451 185.052,100.545 185.297 C 100.639 185.542,100.843 185.743,100.998 185.743 C 101.152 185.743,101.393 186.043,101.532 186.409 C 101.672 186.775,101.959 187.075,102.171 187.075 C 102.383 187.075,102.633 187.425,102.727 187.852 C 102.821 188.280,103.070 188.696,103.281 188.777 C 103.492 188.858,103.664 189.168,103.664 189.465 C 103.664 189.829,103.839 190.007,104.197 190.007 C 104.553 190.007,104.730 190.184,104.730 190.540 C 104.730 190.883,104.908 191.073,105.230 191.073 C 105.565 191.073,105.779 191.321,105.880 191.827 C 106.285 193.851,110.344 195.466,110.964 193.849 C 111.331 192.893,111.127 191.074,110.593 190.540 C 110.300 190.247,110.060 189.827,110.060 189.607 C 110.060 189.385,109.823 189.207,109.527 189.207 C 109.172 189.207,108.994 189.030,108.994 188.674 C 108.994 188.331,108.816 188.141,108.495 188.141 C 108.119 188.141,107.954 187.879,107.826 187.075 C 107.715 186.386,107.515 186.009,107.259 186.009 C 107.040 186.009,106.862 185.771,106.862 185.476 C 106.862 185.121,106.684 184.943,106.329 184.943 C 105.974 184.943,105.796 184.766,105.796 184.410 C 105.796 184.055,105.618 183.877,105.263 183.877 C 104.877 183.877,104.730 183.700,104.730 183.233 C 104.730 182.313,104.465 181.746,104.035 181.746 C 103.831 181.746,103.664 181.506,103.664 181.213 C 103.664 180.857,103.487 180.680,103.131 180.680 C 102.776 180.680,102.598 180.502,102.598 180.147 C 102.598 179.791,102.421 179.614,102.065 179.614 C 101.688 179.614,101.532 179.436,101.532 179.007 C 101.532 178.673,101.772 178.194,102.065 177.943 C 102.358 177.692,102.598 177.246,102.598 176.951 C 102.598 176.593,102.775 176.416,103.131 176.416 C 103.476 176.416,103.664 176.238,103.664 175.914 C 103.664 175.636,103.902 175.350,104.197 175.273 C 104.557 175.179,104.730 174.909,104.730 174.444 C 104.730 174.044,104.953 173.616,105.263 173.422 C 105.556 173.239,105.796 172.879,105.796 172.621 C 105.796 172.330,105.998 172.152,106.329 172.152 C 106.673 172.152,106.862 171.974,106.862 171.650 C 106.862 171.372,107.100 171.086,107.395 171.009 C 107.803 170.902,107.928 170.645,107.928 169.912 C 107.928 169.132,108.027 168.954,108.461 168.954 C 108.816 168.954,108.994 168.776,108.994 168.421 C 108.994 168.066,109.172 167.888,109.527 167.888 C 109.882 167.888,110.060 167.710,110.060 167.355 C 110.060 167.062,110.226 166.822,110.429 166.822 C 110.836 166.822,111.075 166.144,110.920 165.423 C 110.757 164.661,105.796 164.725,105.796 165.490 C 105.796 165.845,105.618 166.023,105.263 166.023 C 104.967 166.023,104.730 166.200,104.730 166.422 C 104.730 166.642,104.490 167.062,104.197 167.355 C 103.904 167.648,103.664 168.128,103.664 168.421 C 103.664 168.731,103.487 168.954,103.240 168.954 C 103.006 168.954,102.753 169.190,102.678 169.478 C 102.602 169.766,102.314 170.074,102.037 170.162 C 101.759 170.250,101.532 170.536,101.532 170.796 C 101.532 171.057,101.292 171.487,100.999 171.752 C 100.706 172.017,100.466 172.456,100.466 172.726 C 100.466 172.997,100.283 173.218,100.058 173.218 C 99.834 173.218,99.573 173.419,99.479 173.664 C 99.069 174.733,98.334 175.150,98.334 174.315 C 98.334 173.771,98.179 173.506,97.801 173.407 C 97.483 173.324,97.268 173.044,97.268 172.710 C 97.268 172.330,97.099 172.152,96.736 172.152 C 96.380 172.152,96.203 171.974,96.203 171.619 C 96.203 171.264,96.025 171.086,95.670 171.086 C 95.238 171.086,95.137 170.908,95.137 170.153 C 95.137 169.502,95.016 169.221,94.737 169.221 C 94.517 169.221,94.337 169.045,94.337 168.830 C 94.337 168.615,94.097 168.311,93.804 168.155 C 93.511 167.998,93.271 167.694,93.271 167.479 C 93.271 167.264,93.047 167.089,92.772 167.089 C 92.396 167.089,92.231 166.826,92.103 166.023 L 91.932 164.957 89.404 164.957 L 86.875 164.957 86.875 165.889 M114.324 179.625 L 114.324 194.294 116.256 194.216 L 118.188 194.137 118.257 179.547 L 118.326 164.957 116.325 164.957 L 114.324 164.957 114.324 179.625 M125.847 179.547 L 125.916 194.137 135.306 194.207 C 146.220 194.289,145.769 194.393,145.769 191.772 C 145.769 189.941,146.092 190.007,137.075 190.007 L 130.047 190.007 130.047 177.482 L 130.047 164.957 127.912 164.957 L 125.778 164.957 125.847 179.547 M147.901 179.314 C 147.901 195.652,147.687 194.343,150.343 194.217 L 152.032 194.137 152.101 179.547 L 152.170 164.957 150.036 164.957 L 147.901 164.957 147.901 179.314 M175.350 168.421 C 175.350 168.865,175.527 168.954,176.416 168.954 C 177.304 168.954,177.482 169.043,177.482 169.487 C 177.482 169.916,177.659 170.020,178.396 170.020 C 179.077 170.020,179.354 170.156,179.480 170.553 C 179.573 170.846,179.821 171.086,180.031 171.086 C 180.241 171.086,180.413 171.277,180.413 171.511 C 180.413 171.744,180.644 171.996,180.927 172.070 C 181.279 172.162,181.496 172.532,181.617 173.244 C 181.724 173.879,181.939 174.284,182.169 174.284 C 182.423 174.284,182.545 174.594,182.545 175.241 C 182.545 175.975,182.670 176.232,183.078 176.339 C 183.565 176.466,183.611 176.702,183.611 179.081 C 183.611 181.459,183.565 181.695,183.078 181.823 C 182.670 181.929,182.545 182.186,182.545 182.920 C 182.545 183.567,182.423 183.877,182.169 183.877 C 181.937 183.877,181.723 184.288,181.612 184.943 C 181.495 185.635,181.291 186.009,181.031 186.009 C 180.810 186.009,180.567 186.249,180.490 186.542 C 180.414 186.835,180.199 187.075,180.013 187.075 C 179.828 187.075,179.613 187.315,179.536 187.608 C 179.434 188.001,179.173 188.141,178.548 188.141 C 177.922 188.141,177.661 188.282,177.559 188.674 C 177.450 189.092,177.195 189.207,176.385 189.207 C 175.642 189.207,175.350 189.320,175.350 189.607 C 175.350 189.936,174.875 190.007,172.677 190.007 C 170.546 190.007,169.972 189.925,169.850 189.607 C 169.751 189.348,169.338 189.207,168.681 189.207 C 167.406 189.207,166.822 188.989,166.822 188.512 C 166.822 188.308,166.582 188.141,166.289 188.141 C 165.934 188.141,165.756 187.964,165.756 187.608 C 165.756 187.253,165.579 187.075,165.223 187.075 C 164.868 187.075,164.690 186.898,164.690 186.542 C 164.690 186.187,164.513 186.009,164.157 186.009 C 163.802 186.009,163.624 185.832,163.624 185.476 C 163.624 185.121,163.447 184.943,163.091 184.943 C 162.647 184.943,162.558 184.766,162.558 183.877 C 162.558 182.989,162.469 182.811,162.025 182.811 C 161.518 182.811,161.492 182.634,161.492 179.081 C 161.492 175.527,161.518 175.350,162.025 175.350 C 162.469 175.350,162.558 175.172,162.558 174.284 C 162.558 173.396,162.647 173.218,163.091 173.218 C 163.447 173.218,163.624 173.040,163.624 172.685 C 163.624 172.330,163.802 172.152,164.157 172.152 C 164.513 172.152,164.690 171.974,164.690 171.619 C 164.690 171.264,164.868 171.086,165.223 171.086 C 165.579 171.086,165.756 170.908,165.756 170.553 C 165.756 170.140,165.934 170.020,166.546 170.020 C 167.064 170.020,167.435 169.836,167.622 169.487 C 167.833 169.092,168.180 168.954,168.963 168.954 C 169.842 168.954,170.020 168.864,170.020 168.421 C 170.020 167.924,170.198 167.888,172.685 167.888 C 175.172 167.888,175.350 167.924,175.350 168.421 M42.638 171.619 C 42.638 171.974,42.816 172.152,43.171 172.152 C 43.610 172.152,43.704 172.330,43.704 173.154 C 43.704 173.867,43.858 174.251,44.237 174.488 C 44.625 174.731,44.770 175.110,44.770 175.883 C 44.770 176.656,44.915 177.035,45.303 177.277 C 45.664 177.502,45.836 177.898,45.836 178.503 C 45.836 179.173,45.970 179.432,46.369 179.536 C 46.773 179.642,46.902 179.900,46.902 180.602 C 46.902 181.305,47.031 181.563,47.435 181.668 C 47.730 181.745,47.968 182.032,47.968 182.310 C 47.968 182.784,47.680 182.811,42.638 182.811 L 37.308 182.811 37.308 181.746 C 37.308 180.857,37.397 180.680,37.841 180.680 C 38.286 180.680,38.374 180.502,38.374 179.614 C 38.374 178.725,38.463 178.548,38.907 178.548 C 39.349 178.548,39.440 178.370,39.440 177.513 C 39.440 176.702,39.556 176.448,39.973 176.339 C 40.373 176.234,40.506 175.975,40.506 175.306 C 40.506 174.701,40.678 174.305,41.039 174.079 C 41.420 173.841,41.572 173.458,41.572 172.736 C 41.572 171.790,41.936 171.086,42.425 171.086 C 42.542 171.086,42.638 171.326,42.638 171.619 M263.656 223.318 C 263.656 224.857,263.700 225.486,263.754 224.717 C 263.808 223.947,263.808 222.688,263.754 221.919 C 263.700 221.149,263.656 221.779,263.656 223.318 " stroke="none" fill="#fcfcfc" fill-rule="evenodd"></path><path id="path4" d="" stroke="none" fill="#100d42c" fill-rule="evenodd"></path></g></svg>